HIERARCHY
ROOT Hips
{
	OFFSET 0.000000 98.037537 0.000000
	CHANNELS 6 Xposition Yposition Zposition Xrotation Yrotation Zrotation 
	JOINT Spine
	{
		OFFSET 0.000000 10.236603 -0.985400
		CHANNELS 3 Xrotation Yrotation Zrotation
		JOINT Spine1
		{
			OFFSET 0.000000 8.530502 -0.821154
			CHANNELS 3 Xrotation Yrotation Zrotation
			JOINT Spine1_split
			{
				OFFSET 0.000000 8.530502 -0.821154
				CHANNELS 3 Xrotation Yrotation Zrotation
				JOINT Spine2
				{
					OFFSET 0.000000 8.530502 -0.821154
					CHANNELS 3 Xrotation Yrotation Zrotation
					JOINT Neck
					{
						OFFSET 0.000000 15.354919 -1.478078
						CHANNELS 3 Xrotation Yrotation Zrotation
						JOINT Head
						{
							OFFSET 0.000000 3.779800 1.345900
							CHANNELS 3 Xrotation Yrotation Zrotation
							JOINT HeadTop_End
							{
								OFFSET 0.000000 25.046295 8.918200
								CHANNELS 3 Xrotation Yrotation Zrotation
								End Site
								{
									OFFSET 0.000000 0.000000 0.000000
								}
							}
						}
					}
					JOINT LeftShoulder
					{
						OFFSET 3.095650 6.783836 -0.741274
						CHANNELS 3 Xrotation Yrotation Zrotation
						JOINT LeftShoulder_split
						{
							OFFSET 3.095650 6.783836 -0.741274
							CHANNELS 3 Xrotation Yrotation Zrotation
							JOINT LeftArm
							{
								OFFSET 12.653139 -3.421951 -0.008858
								CHANNELS 3 Xrotation Yrotation Zrotation
								JOINT LeftForeArm
								{
									OFFSET 27.071707 0.000000 -0.000001
									CHANNELS 3 Xrotation Yrotation Zrotation
									JOINT LeftHand
									{
										OFFSET 25.567696 0.000000 -0.000001
										CHANNELS 3 Xrotation Yrotation Zrotation
										JOINT LeftHandThumb1
										{
											OFFSET 3.060722 -1.462875 2.317776
											CHANNELS 3 Xrotation Yrotation Zrotation
											JOINT LeftHandThumb2
											{
												OFFSET 2.545944 -1.469894 1.469902
												CHANNELS 3 Xrotation Yrotation Zrotation
												JOINT LeftHandThumb3
												{
													OFFSET 2.680428 -1.547546 1.547546
													CHANNELS 3 Xrotation Yrotation Zrotation
													JOINT LeftHandThumb4
													{
														OFFSET 2.195984 -1.267853 1.267851
														CHANNELS 3 Xrotation Yrotation Zrotation
														End Site
														{
															OFFSET 0.000000 0.000000 0.000000
														}
													}
												}
											}
										}
										JOINT LeftHandIndex1
										{
											OFFSET 9.800262 -0.300766 2.394910
											CHANNELS 3 Xrotation Yrotation Zrotation
											JOINT LeftHandIndex2
											{
												OFFSET 3.112297 0.000000 -0.000000
												CHANNELS 3 Xrotation Yrotation Zrotation
												JOINT LeftHandIndex3
												{
													OFFSET 2.927002 0.000000 -0.000000
													CHANNELS 3 Xrotation Yrotation Zrotation
													JOINT LeftHandIndex4
													{
														OFFSET 2.493301 0.000000 0.000000
														CHANNELS 3 Xrotation Yrotation Zrotation
														End Site
														{
															OFFSET 0.000000 0.000000 0.000000
														}
													}
												}
											}
										}
										JOINT LeftHandMiddle1
										{
											OFFSET 10.096680 0.000000 -0.000000
											CHANNELS 3 Xrotation Yrotation Zrotation
											JOINT LeftHandMiddle2
											{
												OFFSET 3.179199 0.000000 0.000000
												CHANNELS 3 Xrotation Yrotation Zrotation
												JOINT LeftHandMiddle3
												{
													OFFSET 3.130302 0.000000 0.000000
													CHANNELS 3 Xrotation Yrotation Zrotation
													JOINT LeftHandMiddle4
													{
														OFFSET 2.641899 0.000000 0.000000
														CHANNELS 3 Xrotation Yrotation Zrotation
														End Site
														{
															OFFSET 0.000000 0.000000 0.000000
														}
													}
												}
											}
										}
										JOINT LeftHandRing1
										{
											OFFSET 9.987442 -0.147278 -2.303933
											CHANNELS 3 Xrotation Yrotation Zrotation
											JOINT LeftHandRing2
											{
												OFFSET 2.756905 0.000000 0.000000
												CHANNELS 3 Xrotation Yrotation Zrotation
												JOINT LeftHandRing3
												{
													OFFSET 2.708405 0.000000 0.000000
													CHANNELS 3 Xrotation Yrotation Zrotation
													JOINT LeftHandRing4
													{
														OFFSET 2.101418 0.000000 0.000000
														CHANNELS 3 Xrotation Yrotation Zrotation
														End Site
														{
															OFFSET 0.000000 0.000000 0.000000
														}
													}
												}
											}
										}
										JOINT LeftHandPinky1
										{
											OFFSET 8.892174 -0.241959 -4.491873
											CHANNELS 3 Xrotation Yrotation Zrotation
											JOINT LeftHandPinky2
											{
												OFFSET 2.615402 0.000000 0.000000
												CHANNELS 3 Xrotation Yrotation Zrotation
												JOINT LeftHandPinky3
												{
													OFFSET 2.179611 0.000000 0.000000
													CHANNELS 3 Xrotation Yrotation Zrotation
													JOINT LeftHandPinky4
													{
														OFFSET 1.785103 0.000000 0.000000
														CHANNELS 3 Xrotation Yrotation Zrotation
														End Site
														{
															OFFSET 0.000000 0.000000 0.000000
														}
													}
												}
											}
										}
									}
								}
							}
						}
					}
					JOINT RightShoulder
					{
						OFFSET -3.095650 6.783813 -0.736801
						CHANNELS 3 Xrotation Yrotation Zrotation
						JOINT RightShoulder_split
						{
							OFFSET -3.095650 6.783813 -0.736801
							CHANNELS 3 Xrotation Yrotation Zrotation
							JOINT RightArm
							{
								OFFSET -12.653151 -3.421906 0.008869
								CHANNELS 3 Xrotation Yrotation Zrotation
								JOINT RightForeArm
								{
									OFFSET -27.069597 0.000000 0.000001
									CHANNELS 3 Xrotation Yrotation Zrotation
									JOINT RightHand
									{
										OFFSET -25.565407 0.000000 0.000001
										CHANNELS 3 Xrotation Yrotation Zrotation
										JOINT RightHandThumb1
										{
											OFFSET -3.209328 -1.689423 2.514706
											CHANNELS 3 Xrotation Yrotation Zrotation
											JOINT RightHandThumb2
											{
												OFFSET -2.734825 -1.578949 1.578951
												CHANNELS 3 Xrotation Yrotation Zrotation
												JOINT RightHandThumb3
												{
													OFFSET -2.487328 -1.436066 1.436060
													CHANNELS 3 Xrotation Yrotation Zrotation
													JOINT RightHandThumb4
													{
														OFFSET -1.930344 -1.114487 1.114487
														CHANNELS 3 Xrotation Yrotation Zrotation
														End Site
														{
															OFFSET 0.000000 0.000000 0.000000
														}
													}
												}
											}
										}
										JOINT RightHandIndex1
										{
											OFFSET -9.905579 -0.263855 2.371006
											CHANNELS 3 Xrotation Yrotation Zrotation
											JOINT RightHandIndex2
											{
												OFFSET -3.114998 0.000000 0.000000
												CHANNELS 3 Xrotation Yrotation Zrotation
												JOINT RightHandIndex3
												{
													OFFSET -2.926697 0.000000 0.000000
													CHANNELS 3 Xrotation Yrotation Zrotation
													JOINT RightHandIndex4
													{
														OFFSET -2.405304 0.000000 0.000000
														CHANNELS 3 Xrotation Yrotation Zrotation
														End Site
														{
															OFFSET 0.000000 0.000000 0.000000
														}
													}
												}
											}
										}
										JOINT RightHandMiddle1
										{
											OFFSET -10.116516 0.000000 0.000000
											CHANNELS 3 Xrotation Yrotation Zrotation
											JOINT RightHandMiddle2
											{
												OFFSET -3.238800 0.000000 0.000000
												CHANNELS 3 Xrotation Yrotation Zrotation
												JOINT RightHandMiddle3
												{
													OFFSET -3.089897 0.000000 0.000000
													CHANNELS 3 Xrotation Yrotation Zrotation
													JOINT RightHandMiddle4
													{
														OFFSET -2.640900 0.000000 0.000000
														CHANNELS 3 Xrotation Yrotation Zrotation
														End Site
														{
															OFFSET 0.000000 0.000000 0.000000
														}
													}
												}
											}
										}
										JOINT RightHandRing1
										{
											OFFSET -10.100227 -0.043533 -2.288989
											CHANNELS 3 Xrotation Yrotation Zrotation
											JOINT RightHandRing2
											{
												OFFSET -2.832199 0.000000 0.000000
												CHANNELS 3 Xrotation Yrotation Zrotation
												JOINT RightHandRing3
												{
													OFFSET -2.645599 0.000000 0.000000
													CHANNELS 3 Xrotation Yrotation Zrotation
													JOINT RightHandRing4
													{
														OFFSET -2.186401 0.000000 0.000000
														CHANNELS 3 Xrotation Yrotation Zrotation
														End Site
														{
															OFFSET 0.000000 0.000000 0.000000
														}
													}
												}
											}
										}
										JOINT RightHandPinky1
										{
											OFFSET -8.769279 -0.239441 -4.443583
											CHANNELS 3 Xrotation Yrotation Zrotation
											JOINT RightHandPinky2
											{
												OFFSET -2.635300 0.000000 0.000000
												CHANNELS 3 Xrotation Yrotation Zrotation
												JOINT RightHandPinky3
												{
													OFFSET -2.200104 0.000000 0.000000
													CHANNELS 3 Xrotation Yrotation Zrotation
													JOINT RightHandPinky4
													{
														OFFSET -1.875404 0.000000 0.000000
														CHANNELS 3 Xrotation Yrotation Zrotation
														End Site
														{
															OFFSET 0.000000 0.000000 0.000000
														}
													}
												}
											}
										}
									}
								}
							}
						}
					}
				}
			}
		}
	}
	JOINT LeftUpLeg
	{
		OFFSET 9.149300 -5.691597 -0.209800
		CHANNELS 3 Xrotation Yrotation Zrotation
		JOINT LeftLeg
		{
			OFFSET 0.367366 -40.775387 -3.165122
			CHANNELS 3 Xrotation Yrotation Zrotation
			JOINT LeftFoot
			{
				OFFSET -0.367361 -38.890987 -2.495499
				CHANNELS 3 Xrotation Yrotation Zrotation
				JOINT LeftToeBase
				{
					OFFSET 3.266852 -11.730358 15.127188
					CHANNELS 3 Xrotation Yrotation Zrotation
					JOINT LeftToe_End
					{
						OFFSET 1.671803 -0.049743 6.701437
						CHANNELS 3 Xrotation Yrotation Zrotation
						End Site
						{
							OFFSET 0.000000 0.000000 0.000000
						}
					}
				}
			}
		}
	}
	JOINT RightUpLeg
	{
		OFFSET -9.149300 -5.691597 -0.455500
		CHANNELS 3 Xrotation Yrotation Zrotation
		JOINT RightLeg
		{
			OFFSET -0.367382 -40.775345 -2.947703
			CHANNELS 3 Xrotation Yrotation Zrotation
			JOINT RightFoot
			{
				OFFSET 0.367374 -38.890850 -2.831249
				CHANNELS 3 Xrotation Yrotation Zrotation
				JOINT RightToeBase
				{
					OFFSET -3.266890 -11.731076 15.306957
					CHANNELS 3 Xrotation Yrotation Zrotation
					JOINT RightToe_End
					{
						OFFSET -1.671815 -0.050072 7.010748
						CHANNELS 3 Xrotation Yrotation Zrotation
						End Site
						{
							OFFSET 0.000000 0.000000 0.000000
						}
					}
				}
			}
		}
	}
}
MOTION
Frames: 4
Frame Time: 0.016667
-0.017080 90.872910 0.201645 -4.489883 -71.885658 -5.976269 14.189811 -2.016831 -0.320955 6.979168 -1.138298 -0.068288 0.000000 0.000000 0.000000 6.979947 -1.137626 -0.040831 -0.606242 1.132484 -0.308093 -0.607462 1.128618 -0.319532 -0.000002 0.000002 -0.000001 0.664549 -9.648868 -7.971524 0.000000 0.000000 0.000000 -19.981903 -70.621055 -52.303663 -0.000003 -49.462693 0.000018 -20.436969 -12.053746 29.743288 12.918552 -14.352096 3.766694 -7.464452 38.549799 4.014260 2.520115 25.042638 25.644442 -0.000000 0.000002 -0.000000 -0.003126 3.517059 -25.047019 5.392009 5.833090 -85.492324 1.138932 3.472511 -36.309105 0.000000 0.000000 -0.000000 1.040744 5.695724 -26.426401 4.731318 5.743276 -78.948087 1.665162 4.091849 -44.273788 -0.000001 -0.000000 0.000000 0.502452 4.733757 -31.731795 5.174294 5.811922 -83.346531 1.678789 4.105727 -44.464105 -0.000002 -0.000000 0.000000 -0.296967 3.719417 -35.394167 4.771114 5.750901 -79.345911 0.921028 3.155030 -32.540206 0.000003 -0.000000 0.000001 0.546834 12.868180 10.065429 0.000000 0.000000 0.000000 -20.858076 13.157514 47.632032 -0.000063 87.292379 0.000016 -37.055747 5.503221 -3.665259 11.465480 24.105585 10.468454 -4.963178 -36.723762 -15.281969 3.615036 -37.001877 -26.660469 -0.000003 0.000003 -0.000006 -4.243243 -1.792203 55.650151 2.182811 -3.946727 57.878320 1.337696 -3.268359 44.507678 -0.000000 -0.000000 -0.000000 -0.401989 -4.272627 53.100944 2.281450 -4.006779 59.300488 1.784728 -3.667356 51.887868 -0.000000 0.000000 -0.000000 1.038819 -5.285608 50.092925 2.441030 -4.097117 61.558425 1.928835 -3.775717 54.107720 0.000000 0.000000 -0.000002 3.552084 -7.249816 52.615584 1.453442 -3.381907 46.503411 1.796629 -3.676644 52.073512 0.000000 -0.000000 -0.000000 -31.707651 17.441211 29.901489 37.599280 4.703541 1.004249 -4.073057 1.310392 -15.950052 -0.420371 -0.000005 -0.000007 -0.000000 -0.000002 -0.000000 -28.974301 -9.775369 -19.108656 34.887100 8.829579 -5.555452 -10.199073 2.026290 20.895888 -0.401683 0.000022 0.000000 -0.000000 0.000000 -0.000000 
-0.029754 90.917358 0.229104 -4.308493 -71.906948 -5.819668 14.061974 -1.984099 -0.287817 6.921695 -1.120606 -0.052269 0.000000 0.000000 0.000000 6.922366 -1.120167 -0.025591 -0.600144 1.129569 -0.306606 -0.601207 1.125720 -0.318011 0.000000 -0.000001 -0.000000 0.670864 -9.573311 -7.836316 0.000000 0.000000 0.000000 -20.358892 -70.786756 -52.797977 -0.000009 -49.447571 -0.000033 -20.609594 -12.023757 29.742697 12.918555 -14.352096 3.766697 -7.464460 38.549803 4.014257 2.520114 25.042643 25.644439 0.000000 0.000002 -0.000000 -0.003126 3.517059 -25.047021 5.392010 5.833090 -85.492317 1.138936 3.472509 -36.309101 -0.000001 0.000000 0.000001 1.040744 5.695728 -26.426396 4.731320 5.743278 -78.948080 1.665164 4.091847 -44.273788 -0.000001 0.000000 -0.000000 0.502451 4.733760 -31.731795 5.174290 5.811917 -83.346524 1.678786 4.105726 -44.464105 0.000000 0.000001 -0.000001 -0.296967 3.719420 -35.394167 4.771116 5.750899 -79.345905 0.921027 3.155034 -32.540206 -0.000002 0.000000 -0.000002 0.570122 12.786674 9.786631 0.000000 0.000000 0.000000 -20.702037 13.088274 47.751403 -0.000259 87.356296 0.000183 -37.275460 5.514432 -3.713254 11.465482 24.105585 10.468463 -4.963179 -36.723762 -15.281975 3.615025 -37.001884 -26.660469 -0.000001 0.000003 -0.000000 -4.243243 -1.792204 55.650162 2.182811 -3.946726 57.878320 1.337696 -3.268358 44.507678 -0.000000 -0.000000 -0.000000 -0.401987 -4.272627 53.100951 2.281449 -4.006779 59.300488 1.784729 -3.667356 51.887868 -0.000000 0.000000 0.000001 1.038819 -5.285610 50.092928 2.441030 -4.097117 61.558425 1.928835 -3.775718 54.107720 0.000000 0.000000 -0.000001 3.552085 -7.249816 52.615590 1.453439 -3.381908 46.503411 1.796627 -3.676646 52.073512 -0.000000 -0.000000 -0.000000 -31.631894 17.410087 29.832852 37.446813 4.823736 0.998270 -4.016329 1.302063 -15.961348 -0.420634 0.000006 0.000003 -0.000000 0.000000 -0.000000 -28.885075 -9.774246 -19.060259 34.639147 8.823209 -5.548453 -10.115166 2.021524 20.903394 -0.366085 0.000032 -0.000004 0.000000 0.000000 0.000000 
-0.042178 90.960388 0.255202 -4.135133 -71.925403 -5.668488 13.945855 -1.946741 -0.260133 6.869244 -1.100005 -0.037274 0.000000 0.000000 0.000000 6.869845 -1.099339 -0.011375 -0.594567 1.125993 -0.304538 -0.595610 1.122215 -0.315883 -0.000002 -0.000000 -0.000000 0.677385 -9.505162 -7.696245 0.000000 0.000000 0.000000 -20.774533 -70.939868 -53.322197 -0.000012 -49.445922 0.000005 -20.764089 -11.980394 29.735153 12.918551 -14.352092 3.766692 -7.464449 38.549799 4.014266 2.520115 25.042650 25.644435 0.000002 0.000004 -0.000000 -0.003129 3.517060 -25.047023 5.392007 5.833093 -85.492317 1.138936 3.472508 -36.309108 0.000001 0.000000 0.000001 1.040742 5.695727 -26.426400 4.731316 5.743274 -78.948087 1.665164 4.091848 -44.273788 0.000001 0.000001 -0.000001 0.502451 4.733757 -31.731788 5.174292 5.811920 -83.346531 1.678785 4.105727 -44.464108 -0.000004 0.000000 0.000000 -0.296966 3.719419 -35.394167 4.771112 5.750898 -79.345905 0.921027 3.155033 -32.540203 0.000002 0.000000 -0.000001 0.592420 12.698829 9.514934 0.000000 0.000000 0.000000 -20.570173 12.988148 47.896196 0.000143 87.442042 -0.000212 -37.462635 5.509281 -3.743824 11.465484 24.105587 10.468453 -4.963180 -36.723755 -15.281976 3.615035 -37.001880 -26.660469 0.000004 -0.000000 -0.000002 -4.243243 -1.792206 55.650165 2.182813 -3.946727 57.878320 1.337696 -3.268359 44.507678 0.000000 -0.000000 -0.000000 -0.401987 -4.272627 53.100947 2.281449 -4.006779 59.300488 1.784728 -3.667355 51.887868 -0.000000 0.000000 0.000001 1.038819 -5.285609 50.092928 2.441029 -4.097118 61.558425 1.928835 -3.775717 54.107720 0.000000 -0.000000 -0.000001 3.552087 -7.249815 52.615590 1.453440 -3.381908 46.503408 1.796627 -3.676645 52.073516 0.000000 -0.000000 -0.000000 -31.556789 17.381011 29.765029 37.296678 4.935633 0.992129 -3.960972 1.293837 -15.970476 -0.419952 -0.000008 -0.000001 -0.000000 0.000001 0.000000 -28.791529 -9.769951 -19.006801 34.397867 8.819327 -5.547810 -10.055301 2.019457 20.884220 -0.296010 0.000032 0.000001 -0.000000 0.000000 -0.000000 
-0.054392 91.002258 0.279985 -3.969022 -71.941659 -5.522085 13.840355 -1.909668 -0.236537 6.821324 -1.079061 -0.023307 0.000000 0.000000 0.000000 6.821925 -1.077962 0.001839 -0.589479 1.122119 -0.302581 -0.590386 1.118416 -0.313933 0.000002 -0.000000 0.000001 0.684152 -9.448235 -7.552389 0.000000 0.000000 0.000000 -21.252772 -71.044138 -53.911055 0.000005 -49.466525 0.000013 -20.875399 -11.915656 29.712484 12.918553 -14.352097 3.766694 -7.464448 38.549799 4.014271 2.520111 25.042644 25.644434 -0.000000 0.000002 0.000001 -0.003127 3.517062 -25.047023 5.392013 5.833091 -85.492317 1.138933 3.472507 -36.309098 0.000001 0.000000 -0.000001 1.040742 5.695726 -26.426400 4.731316 5.743274 -78.948087 1.665162 4.091850 -44.273788 0.000000 -0.000000 -0.000000 0.502451 4.733758 -31.731788 5.174291 5.811918 -83.346524 1.678786 4.105726 -44.464105 -0.000000 0.000000 0.000001 -0.296970 3.719418 -35.394170 4.771111 5.750898 -79.345911 0.921026 3.155039 -32.540210 0.000000 0.000000 -0.000001 0.612686 12.604238 9.262686 0.000000 0.000000 0.000000 -20.466160 12.874575 48.058294 0.000040 87.538846 -0.000051 -37.614104 5.484393 -3.752161 11.465484 24.105582 10.468450 -4.963177 -36.723762 -15.281976 3.615030 -37.001877 -26.660465 -0.000000 -0.000001 -0.000002 -4.243242 -1.792206 55.650162 2.182812 -3.946726 57.878326 1.337697 -3.268359 44.507681 -0.000001 0.000000 -0.000001 -0.401987 -4.272629 53.100951 2.281451 -4.006779 59.300488 1.784728 -3.667357 51.887871 0.000000 -0.000000 -0.000000 1.038820 -5.285611 50.092925 2.441029 -4.097117 61.558425 1.928835 -3.775717 54.107724 0.000000 0.000000 0.000000 3.552088 -7.249817 52.615590 1.453440 -3.381907 46.503411 1.796629 -3.676646 52.073516 -0.000000 -0.000000 -0.000000 -31.479307 17.349073 29.693684 37.148487 5.049570 0.987914 -3.905629 1.285603 -15.980705 -0.418165 -0.000021 0.000007 -0.000000 0.000000 -0.000000 -28.696288 -9.764006 -18.951094 34.163121 8.820413 -5.551591 -10.007705 2.012609 20.849767 -0.208444 0.000027 -0.000001 0.000000 -0.000001 -0.000000 
